<?xml version="1.0" encoding="UTF-8" standalone="no"?>
<!-- Created with Inkscape (http://www.inkscape.org/) -->

<svg
   xmlns:dc="http://purl.org/dc/elements/1.1/"
   xmlns:cc="http://creativecommons.org/ns#"
   xmlns:rdf="http://www.w3.org/1999/02/22-rdf-syntax-ns#"
   xmlns:svg="http://www.w3.org/2000/svg"
   xmlns="http://www.w3.org/2000/svg"
   xmlns:xlink="http://www.w3.org/1999/xlink"
   xmlns:sodipodi="http://sodipodi.sourceforge.net/DTD/sodipodi-0.dtd"
   xmlns:inkscape="http://www.inkscape.org/namespaces/inkscape"
   width="24"
   height="24"
   id="svg2985"
   version="1.1"
   inkscape:export-xdpi="240"
   inkscape:export-ydpi="240"
   inkscape:version="0.48.5 r10040"
   sodipodi:docname="awd.svg">
  <defs
     id="defs2987">
    <linearGradient
       id="linearGradient4059">
      <stop
         style="stop-color:#ffffff;stop-opacity:1;"
         offset="0"
         id="stop4061" />
      <stop
         style="stop-color:#ffffff;stop-opacity:0;"
         offset="1"
         id="stop4063" />
    </linearGradient>
    <linearGradient
       id="linearGradient3845">
      <stop
         style="stop-color:#000000;stop-opacity:1;"
         offset="0"
         id="stop3847" />
      <stop
         style="stop-color:#000000;stop-opacity:0.58823532;"
         offset="1"
         id="stop3849" />
    </linearGradient>
    <linearGradient
       inkscape:collect="always"
       xlink:href="#linearGradient3845"
       id="linearGradient3859"
       x1="9.9870329"
       y1="62.712555"
       x2="10"
       y2="41.251251"
       gradientUnits="userSpaceOnUse" />
    <linearGradient
       inkscape:collect="always"
       xlink:href="#linearGradient3845"
       id="linearGradient3883"
       x1="9.9679356"
       y1="63.001247"
       x2="10.032936"
       y2="41.282497"
       gradientUnits="userSpaceOnUse" />
    <linearGradient
       id="linearGradient3845-8">
      <stop
         style="stop-color:#000000;stop-opacity:1;"
         offset="0"
         id="stop3847-4" />
      <stop
         style="stop-color:#000000;stop-opacity:0.58823532;"
         offset="1"
         id="stop3849-3" />
    </linearGradient>
    <linearGradient
       inkscape:collect="always"
       xlink:href="#linearGradient3845-8"
       id="linearGradient3933"
       x1="11.000548"
       y1="63.261932"
       x2="11.030311"
       y2="41.032261"
       gradientUnits="userSpaceOnUse" />
    <linearGradient
       id="linearGradient3845-8-0">
      <stop
         style="stop-color:#000000;stop-opacity:1;"
         offset="0"
         id="stop3847-4-8" />
      <stop
         style="stop-color:#000000;stop-opacity:0.58823532;"
         offset="1"
         id="stop3849-3-5" />
    </linearGradient>
    <linearGradient
       y2="41.032261"
       x2="11.030311"
       y1="63.261932"
       x1="11.000548"
       gradientUnits="userSpaceOnUse"
       id="linearGradient3950"
       xlink:href="#linearGradient3845-8-0"
       inkscape:collect="always" />
    <linearGradient
       inkscape:collect="always"
       xlink:href="#linearGradient4059"
       id="linearGradient4065"
       x1="12.049463"
       y1="45.967922"
       x2="11.981787"
       y2="65.911743"
       gradientUnits="userSpaceOnUse" />
  </defs>
  <sodipodi:namedview
     id="base"
     pagecolor="#ffffff"
     bordercolor="#666666"
     borderopacity="1.0"
     inkscape:pageopacity="0.0"
     inkscape:pageshadow="2"
     inkscape:zoom="16"
     inkscape:cx="-1.5"
     inkscape:cy="9.2341721"
     inkscape:current-layer="layer1"
     showgrid="true"
     inkscape:document-units="px"
     inkscape:grid-bbox="true"
     inkscape:window-width="748"
     inkscape:window-height="674"
     inkscape:window-x="478"
     inkscape:window-y="309"
     inkscape:window-maximized="0"
     inkscape:snap-global="true"
     inkscape:snap-grids="false"
     inkscape:snap-page="true"
     inkscape:snap-object-midpoints="true">
    <inkscape:grid
       type="xygrid"
       id="grid2993"
       empspacing="5"
       visible="true"
       enabled="true"
       snapvisiblegridlinesonly="true" />
  </sodipodi:namedview>
  <metadata
     id="metadata2990">
    <rdf:RDF>
      <cc:Work
         rdf:about="">
        <dc:format>image/svg+xml</dc:format>
        <dc:type
           rdf:resource="http://purl.org/dc/dcmitype/StillImage" />
        <dc:title></dc:title>
      </cc:Work>
    </rdf:RDF>
  </metadata>
  <g
     id="layer1"
     inkscape:label="Layer 1"
     inkscape:groupmode="layer"
     transform="translate(0,-40)">
    <path
       style="opacity:0.1;fill:url(#linearGradient3950);fill-opacity:1;stroke:none"
       d="m 3.5049313,40.75 16.9917677,0 C 22.013495,40.75 23.5,41.886999 23.5,43.526249 l 0,17.225 C 23.5,61.859249 22.733143,63.5 20.501686,63.5 l -17.0017437,0 C 1.8242149,63.5 0.49706499,62.224876 0.4975,60.72625 L 0.5025,43.501249 C 0.50292594,42.033877 1.5494231,40.75 3.5049433,40.75 z"
       id="rect3792-7-2-2-9"
       inkscape:connector-curvature="0"
       sodipodi:nodetypes="cssssssssc" />
    <path
       style="fill:url(#linearGradient3933);fill-opacity:1;stroke:none;opacity:0.1"
       d="m 3.5049313,41 16.9917677,0 c 1.108,0 2.753301,0.886999 2.753301,2.526249 l 0,17.225 c 0,1.108 -0.87041,2.498751 -2.748314,2.498751 l -17.0017437,0 C 2.1888168,63.25 0.74706499,62.224876 0.7475,60.72625 L 0.7525,43.501249 C 0.75292594,42.033877 2.0049971,41 3.5049433,41 z"
       id="rect3792-7-2-2"
       inkscape:connector-curvature="0"
       sodipodi:nodetypes="cssssssssc" />
    <path
       style="fill:url(#linearGradient3883);fill-opacity:1;stroke:none;opacity:0.1"
       d="m 3.5049317,41.251249 16.9917673,0 c 1.108,0 2.504987,0.909188 2.504987,2.275 l 0,17.225 c 0,1.108 -1.043971,2.25 -2.5,2.25 l -17.0017433,0 c -0.9751875,0 -2.50119216,-0.776373 -2.50075714,-2.274999 l 0.005,-17.225001 c 4.078e-4,-1.404879 1.371428,-2.25 2.5007581,-2.25 z"
       id="rect3792-7-2"
       inkscape:connector-curvature="0"
       sodipodi:nodetypes="cssssssssc" />
    <path
       style="fill:url(#linearGradient3859);fill-opacity:1;stroke:none;opacity:0.4"
       d="m 3.504117,41.502499 16.991766,0 c 1.108,0 2.254117,0.914501 2.254117,2.022501 l 0,17.2 c 0,1.108 -1.142,2.025 -2.25,2.025 l -17.0008711,0 c -1.108,0 -2.2485787,-0.917 -2.2482578,-2.025 L 1.2558595,43.5 c 3.209e-4,-1.108 1.1402577,-1.997501 2.2482575,-1.997501 z"
       id="rect3792-7"
       inkscape:connector-curvature="0"
       sodipodi:nodetypes="sssssssss" />
    <rect
       style="fill:#ededed;stroke:none;stroke-width:1;stroke-linecap:round;stroke-linejoin:miter;stroke-miterlimit:4;stroke-opacity:1;stroke-dasharray:none;fill-opacity:1"
       id="rect3792"
       width="20.991766"
       height="20.995003"
       x="1.5"
       y="1.5078125"
       transform="translate(0,40)"
       ry="2" />
    <path
       style="font-size:medium;font-style:normal;font-variant:normal;font-weight:normal;font-stretch:normal;text-indent:0;text-align:start;text-decoration:none;line-height:normal;letter-spacing:normal;word-spacing:normal;text-transform:none;direction:ltr;block-progression:tb;writing-mode:lr-tb;text-anchor:start;baseline-shift:baseline;opacity:0.59090905000000005;color:#000000;fill:url(#linearGradient4065);fill-opacity:1;stroke:none;stroke-width:0.50000000000000000;marker:none;visibility:visible;display:inline;overflow:visible;enable-background:accumulate;font-family:Sans;-inkscape-font-specification:Sans"
       d="m 22.5,60.625 0,-17 c 0,-1.242176 -0.884883,-2.125 -2,-2.125 l -17,0 c -0.8710563,0 -2,0.67847 -2,2.125 l 0,17 m 0.5,0 0,-17 C 2,42.651176 2.5261757,42 3.5,42 l 17,0 c 0.973825,0 1.5,0.651176 1.5,1.625 l 0,17"
       id="rect3792-2"
       inkscape:connector-curvature="0"
       sodipodi:nodetypes="cssssccssssc" />
    <path
       inkscape:connector-curvature="0"
       id="path2996"
       style="font-size:64px;font-style:normal;font-variant:normal;font-weight:bold;font-stretch:normal;text-align:start;line-height:125%;letter-spacing:0px;word-spacing:0px;writing-mode:lr-tb;text-anchor:start;fill:#000000;fill-opacity:1;stroke:#000000;stroke-width:0.38600001;stroke-linecap:round;stroke-miterlimit:4;stroke-opacity:1;stroke-dasharray:none;font-family:ITCOfficinaSans LT Book;-inkscape-font-specification:ITCOfficinaSans LT Book"
       d="m 13.176009,49.895895 c -0.131324,6e-6 -0.372075,6e-6 -0.722253,0 -0.335596,6e-6 -0.678484,0.05105 -1.028661,0.153123 -0.350188,0.102087 -0.663894,0.277084 -0.941118,0.524993 -0.262641,0.233334 -0.393959,0.59062 -0.393956,1.07186 -3e-6,0.422913 0.131315,0.780199 0.393956,1.07186 0.277224,0.277081 0.627408,0.415619 1.050549,0.415618 0.408541,10e-7 0.751429,-0.102079 1.028663,-0.306246 0.277222,-0.218744 0.481496,-0.393742 0.61282,-0.524992 l 0,-2.406216 m 1.335073,5.1843 c -0.09961,0.03109 -0.193238,0.05943 -0.284524,0.0875 -0.04378,0 -0.102144,-0.04375 -0.17509,-0.131247 -0.05838,-0.08749 -0.116735,-0.196873 -0.175092,-0.32812 -0.05838,-0.131248 -0.116735,-0.269787 -0.175092,-0.415618 -0.04377,-0.160415 -0.08026,-0.306246 -0.109433,-0.437495 -0.116734,0.116666 -0.255348,0.247914 -0.415842,0.393745 -0.145914,0.145831 -0.335598,0.291662 -0.569047,0.437493 -0.21887,0.131249 -0.481507,0.240621 -0.787912,0.32812 -0.306414,0.102082 -0.663893,0.153122 -1.072436,0.153122 -1.006778,0 -1.809281,-0.298953 -2.407508,-0.896862 -0.58364,-0.612486 -0.875458,-1.436431 -0.875458,-2.471835 0,-0.612487 0.102136,-1.130187 0.306411,-1.553102 0.204271,-0.422905 0.466908,-0.772899 0.787911,-1.049984 0.33559,-0.277074 0.707659,-0.488529 1.116208,-0.634366 0.408545,-0.145824 0.824386,-0.247907 1.247528,-0.306245 0.423135,-0.07292 0.83168,-0.116659 1.225641,-0.131249 0.39395,-0.01458 0.736838,-0.02187 1.028662,-0.02187 l 0,-0.678115 c -6e-6,-0.247907 -0.0146,-0.466653 -0.04378,-0.656241 -0.02919,-0.204155 -0.102143,-0.379153 -0.218865,-0.524992 -0.102143,-0.145822 -0.255347,-0.255196 -0.459616,-0.328121 -0.204278,-0.07291 -0.481506,-0.109365 -0.831684,-0.109373 -0.306414,8e-6 -0.605529,0.03647 -0.897343,0.109373 -0.291824,0.05834 -0.561757,0.131257 -0.809799,0.218747 -0.24805,0.08751 -0.459619,0.167714 -0.634707,0.240622 -0.175094,0.05835 -0.299118,0.0875 -0.37207,0.08749 -0.05837,8e-6 -0.109434,-0.02187 -0.153205,-0.06563 -0.02918,-0.05833 -0.05106,-0.109366 -0.06565,-0.153124 l -0.437727,-1.33435 c -0.04378,-0.08748 -0.06566,-0.174988 -0.06565,-0.262496 -2e-6,-0.131238 0.116725,-0.255194 0.350183,-0.37187 0.248044,-0.116654 0.561749,-0.226027 0.941116,-0.328119 0.379362,-0.102072 0.795204,-0.182279 1.247528,-0.240622 0.452315,-0.05833 0.890044,-0.08748 1.313186,-0.0875 1.371544,1.1e-5 2.341841,0.306257 2.910897,0.918736 0.569038,0.597918 0.853562,1.465613 0.853572,2.603088 l 0,4.221814 c -1e-5,0.524995 0.02917,0.947904 0.08754,1.268731 0.05836,0.32083 0.124014,0.583325 0.196978,0.787488 0.07295,0.189582 0.138605,0.342704 0.196978,0.459369 0.05836,0.116665 0.08754,0.226039 0.08755,0.32812 -10e-6,0.07291 -0.06566,0.13854 -0.196979,0.196871 l -1.663369,0.678116"
       sodipodi:nodetypes="ccccccsccccccccccccscsscccccccccccccccccccccccsccccccc" />
    <path
       style="font-size:medium;font-style:normal;font-variant:normal;font-weight:normal;font-stretch:normal;text-indent:0;text-align:start;text-decoration:none;line-height:normal;letter-spacing:normal;word-spacing:normal;text-transform:none;direction:ltr;block-progression:tb;writing-mode:lr-tb;text-anchor:start;baseline-shift:baseline;color:#000000;fill:#ffa700;fill-opacity:1;fill-rule:nonzero;stroke:none;stroke-width:0.38581464px;marker:none;visibility:visible;display:inline;overflow:visible;enable-background:accumulate;font-family:Sans;-inkscape-font-specification:Sans"
       d="m 20.3125,13.9375 c -0.455696,-0.0275 -0.87512,0.02774 -1.25,0.09375 -0.677453,0.11928 -1.067992,0.305633 -1.15625,0.34375 -0.0094,0.0041 -0.125,0.03125 -0.125,0.03125 -0.02528,0.01565 -0.04685,0.03722 -0.0625,0.0625 -0.01157,0.0092 -0.02208,0.01968 -0.03125,0.03125 -8.45e-4,0.01039 -8.45e-4,0.02086 0,0.03125 -0.0034,0.02065 -0.0034,0.04185 0,0.0625 -0.0034,0.02065 -0.0034,0.04185 0,0.0625 0.0092,0.01157 0.01968,0.02208 0.03125,0.03125 0.0092,0.01157 0.01968,0.02208 0.03125,0.03125 0.0092,0.01157 0.01968,0.02208 0.03125,0.03125 0.01871,0.01409 0.04,0.02474 0.0625,0.03125 0,0 0.586202,0.05024 1.1875,0.15625 0.300649,0.053 0.604283,0.117855 0.84375,0.1875 0.119733,0.03482 0.208819,0.05993 0.28125,0.09375 0.07243,0.03382 0.132174,0.07277 0.125,0.0625 0.02627,0.0401 0.04846,0.162102 0.03125,0.34375 -0.01721,0.181648 -0.08613,0.423676 -0.15625,0.65625 -0.140248,0.465148 -0.329563,0.970427 -0.46875,1.25 -0.01157,0.0092 -0.02208,0.01968 -0.03125,0.03125 -0.0034,0.02065 -0.0034,0.04185 0,0.0625 -8.45e-4,0.01039 -8.45e-4,0.02086 0,0.03125 0.0065,0.0225 0.01715,0.04379 0.03125,0.0625 0.0092,0.01157 0.01968,0.02208 0.03125,0.03125 0.0092,0.01157 0.01968,0.02208 0.03125,0.03125 0.02065,0.0034 0.04185,0.0034 0.0625,0 0.0092,0.01157 0.01968,0.02208 0.03125,0.03125 0.0225,-0.0065 0.04379,-0.01716 0.0625,-0.03125 0.01039,8.45e-4 0.02086,8.45e-4 0.03125,0 0.01157,-0.0092 0.02208,-0.01968 0.03125,-0.03125 0,0 0.05825,-0.05946 0.0625,-0.0625 0.06172,-0.04409 0.473088,-0.319747 0.9375,-0.875 0.496405,-0.593504 0.984721,-1.435302 0.84375,-2.375 8.45e-4,-0.01039 8.45e-4,-0.02086 0,-0.03125 -0.0065,-0.0225 -0.01715,-0.04379 -0.03125,-0.0625 C 21.77205,14.33218 21.76157,14.32167 21.75,14.3125 21.7408,14.30093 21.73032,14.29042 21.71875,14.28125 21.260162,14.075237 20.768196,13.964998 20.3125,13.9375 z M 3.2622148,15.834097 C 8.6126706,21.120909 16.230172,19.065979 19.53125,16.375 c 0.617498,-0.477242 -0.100515,-1.179793 -0.5,-1 C 14.49961,17.665065 7.3791326,17.975344 4.0327415,15.039158 3.4207254,14.532659 2.69835,15.222559 3.2622148,15.834097 z"
       transform="translate(0,40)"
       id="path3001"
       inkscape:connector-curvature="0"
       sodipodi:nodetypes="sscccccccccccccscsccccccccccccccscccccsccccc" />
  </g>
</svg>
