<?xml version="1.0" encoding="UTF-8" standalone="no"?>
<!-- Created with Inkscape (http://www.inkscape.org/) -->

<svg
   xmlns:dc="http://purl.org/dc/elements/1.1/"
   xmlns:cc="http://creativecommons.org/ns#"
   xmlns:rdf="http://www.w3.org/1999/02/22-rdf-syntax-ns#"
   xmlns:svg="http://www.w3.org/2000/svg"
   xmlns="http://www.w3.org/2000/svg"
   xmlns:sodipodi="http://sodipodi.sourceforge.net/DTD/sodipodi-0.dtd"
   xmlns:inkscape="http://www.inkscape.org/namespaces/inkscape"
   width="24"
   height="24"
   id="svg2985"
   version="1.1"
   inkscape:version="0.48.4 r9939"
   sodipodi:docname="icon_mono.svg"
   inkscape:export-filename="/home/artem/Dropbox/Sources/awd/src/images/tray.png"
   inkscape:export-xdpi="180"
   inkscape:export-ydpi="180">
  <defs
     id="defs2987" />
  <sodipodi:namedview
     id="base"
     pagecolor="#ffffff"
     bordercolor="#666666"
     borderopacity="1.0"
     inkscape:pageopacity="0.0"
     inkscape:pageshadow="2"
     inkscape:zoom="32"
     inkscape:cx="8.4792107"
     inkscape:cy="9.4555172"
     inkscape:current-layer="layer1"
     showgrid="true"
     inkscape:document-units="px"
     inkscape:grid-bbox="true"
     inkscape:window-width="1858"
     inkscape:window-height="1060"
     inkscape:window-x="60"
     inkscape:window-y="-3"
     inkscape:window-maximized="1"
     inkscape:snap-global="true"
     inkscape:snap-grids="false">
    <inkscape:grid
       type="xygrid"
       id="grid2993"
       empspacing="5"
       visible="true"
       enabled="true"
       snapvisiblegridlinesonly="true" />
  </sodipodi:namedview>
  <metadata
     id="metadata2990">
    <rdf:RDF>
      <cc:Work
         rdf:about="">
        <dc:format>image/svg+xml</dc:format>
        <dc:type
           rdf:resource="http://purl.org/dc/dcmitype/StillImage" />
        <dc:title></dc:title>
      </cc:Work>
    </rdf:RDF>
  </metadata>
  <g
     id="layer1"
     inkscape:label="Layer 1"
     inkscape:groupmode="layer"
     transform="translate(0,-40)">
    <path
       style="fill:#ff9f00;fill-opacity:0.58823529;stroke:none"
       d="m 3,20 18,0 0,2 -18,0 z"
       transform="translate(0,40)"
       id="rect4558"
       inkscape:connector-curvature="0"
       sodipodi:nodetypes="ccccc" />
    <path
       style="fill:#ffffff;fill-opacity:0.58823529;stroke:none"
       d="m 11.423624,42.324443 c -0.533141,2.3e-5 -1.07419,0.03571 -1.649857,0.10999 -0.5762884,0.07437 -1.1038158,0.16605 -1.5765307,0.293308 -0.4655856,0.125361 -0.8552383,0.273374 -1.1365682,0.403298 -0.00809,0.0038 -0.028733,-0.0038 -0.036663,0 -0.037959,0.02106 -0.051222,0.02115 -0.073327,0.03666 l 0,0.03666 0,0.03666 0.5499524,1.613194 c 0.025025,-0.0065 0.00808,-0.02822 0.036663,-0.03666 0.00897,-0.0038 0.027571,0.0038 0.036664,0 0.239721,-0.0991 0.5198331,-0.215804 0.8432603,-0.329971 0.3578155,-0.126278 0.7263523,-0.211252 1.1365682,-0.293308 0.433098,-0.108254 0.86775,-0.146643 1.319886,-0.146654 0.504235,1.1e-5 0.912856,0.05106 1.283222,0.183317 0.341409,0.121951 0.666454,0.30252 0.879924,0.586616 0.01032,0.01368 0.02681,0.02261 0.03666,0.03666 0.205769,0.271514 0.31757,0.609913 0.366635,0.95325 0.04447,0.289051 0.07332,0.601939 0.07333,0.953251 l 0,0.916587 0,0.586616 -0.586616,0 c -0.376492,0 -0.840457,-0.01911 -1.356549,0 -0.493101,0.01827 -1.003388,0.09082 -1.539867,0.183318 -0.5198549,0.07171 -1.0361789,0.186754 -1.5398662,0.366635 -0.4677207,0.167048 -0.8969698,0.418802 -1.2832222,0.733269 -0.3597433,0.310692 -0.6767024,0.712992 -0.9165873,1.209896 -0.2221827,0.460239 -0.3299723,1.050548 -0.3299715,1.796511 -8e-7,1.261068 0.3312407,2.168152 0.9899143,2.859752 0.6754861,0.67549 1.5333464,1.026578 2.7497619,1.026578 0.491875,0 0.915177,-0.07286 1.246559,-0.183318 l 0.03666,0 c 0.366548,-0.104734 0.644463,-0.225362 0.879924,-0.366634 0.281058,-0.175668 0.508281,-0.361633 0.659943,-0.513289 0.207202,-0.188374 0.404074,-0.367417 0.549952,-0.513289 l 0.73327,-0.769934 0.256644,1.063242 c 0.03148,0.14168 0.06341,0.302356 0.109991,0.476625 0.07474,0.186867 0.146009,0.383544 0.219981,0.549952 0.02926,0.06584 0.04601,0.09415 0.07333,0.146654 0.009,-0.0028 0.0288,0.0026 0.03666,0 l 0.109991,0 1.906501,-0.806596 c -0.08638,-0.175613 -0.197091,-0.373086 -0.293308,-0.62328 -0.112653,-0.315403 -0.212284,-0.690902 -0.293308,-1.136568 -0.08733,-0.4803 -0.110002,-1.079507 -0.10999,-1.796511 l 0,-5.572851 c -1.2e-5,-1.408639 -0.364744,-2.385817 -0.989914,-3.04307 -0.593314,-0.638931 -1.681652,-1.026564 -3.409705,-1.026577 z m 0.549952,7.112717 0.879924,0 0.07333,0 c 0.01221,-3.82e-4 0.02445,-3.82e-4 0.03666,0 0.02526,0.01049 0.04978,0.02275 0.07333,0.03666 0.02442,-0.0015 0.04891,-0.0015 0.07333,0 0.02526,0.01049 0.04978,0.02275 0.07333,0.03666 0.07012,0.03591 0.132887,0.08612 0.183317,0.146654 0.01275,0.01161 0.02499,0.02391 0.03666,0.03666 0.01391,0.02355 0.02617,0.04807 0.03666,0.07333 0.01392,0.02355 0.02618,0.04807 0.03666,0.07333 0.02189,0.05863 0.03433,0.120779 0.03666,0.183318 0.0096,0.06061 0.0096,0.122714 0,0.183317 l 0,3.006407 0,0.256644 -0.183317,0.183318 c -0.293167,0.31705 -0.621329,0.527016 -0.879921,0.733269 -0.477741,0.352018 -1.047993,0.51329 -1.686521,0.513289 -0.688193,10e-7 -1.3240464,-0.224132 -1.7965114,-0.696606 l -0.03666,-0.03666 C 8.4885515,53.675699 8.2705572,53.051692 8.2705633,52.370239 c -5.9e-6,-0.743987 0.1992949,-1.427782 0.6966063,-1.869838 0.428597,-0.383481 0.9204324,-0.647308 1.4665404,-0.806597 0.511844,-0.14927 1.036146,-0.256636 1.539866,-0.256644 z"
       id="rect4395"
       inkscape:connector-curvature="0"
       sodipodi:nodetypes="cccccccccccccccccccccsccccsscsccccccccccccccccsccccccccccccccccccccscccccc" />
    <path
       style="fill:none;stroke:#000000;stroke-width:1;stroke-linecap:butt;stroke-linejoin:round;stroke-miterlimit:4;stroke-opacity:0.39215686;stroke-dasharray:none"
       d="m 35.815773,45.820891 c -1.95476,-0.878615 -4.241146,0.131527 -4.241146,0.131527 0,0 1.907367,0.427814 2.183285,0.823064 0.314895,0.480997 0.369741,1.941847 0.04392,2.596656 0,0 2.304336,-1.614481 2.013944,-3.551247 z"
       id="path2986"
       inkscape:connector-curvature="0"
       sodipodi:nodetypes="ccccc" />
    <path
       style="font-size:64px;font-style:normal;font-variant:normal;font-weight:bold;font-stretch:normal;text-indent:0;text-align:start;text-decoration:none;line-height:125%;letter-spacing:0px;word-spacing:0px;text-transform:none;direction:ltr;block-progression:tb;writing-mode:lr-tb;text-anchor:start;baseline-shift:baseline;color:#000000;fill:#000000;fill-opacity:0.39215686;stroke:none;stroke-width:1;marker:none;visibility:visible;display:inline;overflow:visible;enable-background:accumulate;font-family:ITCOfficinaSans LT Book;-inkscape-font-specification:ITCOfficinaSans LT Book"
       d="m 11.423624,41.152677 c -0.587028,2.5e-5 -1.211444,0.02978 -1.833175,0.109991 -0.6211324,0.08016 -1.1916281,0.186872 -1.7231843,0.329971 -0.5253131,0.141444 -0.9469691,0.301149 -1.3198855,0.476626 l -0.036663,0 c -0.1938519,0.09693 -0.3652223,0.209314 -0.5132889,0.366635 -0.1480665,0.157321 -0.2566479,0.399213 -0.2566444,0.659942 -1.76e-5,0.18541 0.03813,0.34669 0.1099905,0.513289 0.010911,0.02541 0.024356,0.04873 0.036664,0.07333 l 0.5499523,1.686521 c 0.031689,0.09513 0.062627,0.198574 0.1099905,0.293308 l 0.036664,0.07333 0.073327,0.07333 c 0.1500915,0.150115 0.3992918,0.256675 0.6232793,0.256644 0.2530179,3.1e-5 0.4049587,-0.06164 0.6599426,-0.146654 l 0.036663,0 0.036664,0 c 0.2178811,-0.09077 0.4856337,-0.180014 0.8065969,-0.293308 0.2988191,-0.105461 0.6275951,-0.220829 0.989914,-0.293308 0.339412,-0.08484 0.704216,-0.109978 1.063242,-0.10999 0.422777,9e-6 0.746175,0.04913 0.916587,0.10999 0.182901,0.06533 0.237121,0.139724 0.293308,0.219981 l 0.03666,0 c 0.08599,0.107504 0.157406,0.258625 0.183318,0.439962 0.03278,0.21311 0.03665,0.464619 0.03666,0.769934 l 0,0.329971 c -0.260884,0.0048 -0.501608,-0.01126 -0.806597,0 -0.549817,0.02037 -1.102849,0.08268 -1.68652,0.183318 -0.6003129,0.08281 -1.1820122,0.233601 -1.7598479,0.439961 -0.603675,0.215606 -1.1545067,0.544054 -1.6498569,0.953251 -0.4900354,0.423219 -0.9090187,0.953289 -1.2098952,1.57653 -0.3185852,0.65993 -0.4399631,1.433477 -0.4399619,2.3098 -1.2e-6,1.481394 0.4335103,2.735666 1.3198857,3.66635 l 0,0.03666 c 0.9081787,0.908183 2.144228,1.356549 3.5930222,1.356549 0.576575,0 1.104967,-0.10403 1.57653,-0.256644 l 0,0.03666 c 0.01626,-0.0047 0.02053,-0.03192 0.03666,-0.03666 0.424829,-0.124871 0.841864,-0.277811 1.173231,-0.476626 0.27927,-0.17455 0.48769,-0.360266 0.696607,-0.549952 0.04515,0.107961 0.101226,0.227771 0.146654,0.329971 0.08707,0.195915 0.154284,0.359797 0.256644,0.513289 l 0.03666,0.03666 c 0.133495,0.160201 0.247584,0.403298 0.696607,0.403298 0.30396,0.0061 0.585444,-0.178309 0.806597,-0.293308 l 1.979828,-0.769933 c 0.160954,-0.07722 0.295053,-0.187761 0.403299,-0.256644 0.120258,-0.120265 0.21995,-0.325715 0.219981,-0.549953 -2.2e-5,-0.246882 -0.03881,-0.48089 -0.146654,-0.696606 -0.06413,-0.128237 -0.164431,-0.310175 -0.256645,-0.549953 -0.08049,-0.22536 -0.146513,-0.549138 -0.219981,-0.95325 -0.06718,-0.36947 -0.110002,-0.902988 -0.10999,-1.576531 l 0,-5.57285 c -1.4e-5,-1.604175 -0.401999,-2.923221 -1.283222,-3.849667 -0.913128,-0.983333 -2.386842,-1.393197 -4.289629,-1.393213 z m 0,1.173232 c 1.728053,1.3e-5 2.816391,0.387646 3.409705,1.026578 0.62517,0.657253 0.989902,1.63443 0.989914,3.04307 l 0,5.57285 c -1.3e-5,0.717005 0.02266,1.316212 0.10999,1.796512 0.08102,0.445666 0.180649,0.821164 0.293308,1.136568 0.09622,0.250194 0.206922,0.447666 0.293308,0.623279 l -1.906501,0.806597 -0.109991,0 c -0.0079,0.0026 -0.02763,-0.0028 -0.03666,0 -0.02731,-0.0525 -0.04407,-0.08081 -0.07333,-0.146654 -0.07397,-0.166409 -0.145243,-0.363086 -0.219981,-0.549952 -0.04658,-0.17427 -0.07851,-0.334945 -0.109991,-0.476626 l -0.256644,-1.063241 -0.73327,0.769933 c -0.145878,0.145873 -0.34275,0.324915 -0.549952,0.513289 -0.151662,0.151657 -0.378885,0.337621 -0.659943,0.513289 -0.235461,0.141272 -0.513376,0.261904 -0.879924,0.366635 l -0.03666,0 c -0.331382,0.11046 -0.754684,0.183317 -1.246559,0.183317 -1.2164162,0 -2.0742766,-0.351088 -2.7497624,-1.026577 -0.6586734,-0.6916 -0.9899154,-1.598685 -0.9899143,-2.859753 -1.1e-6,-0.745963 0.1077848,-1.336272 0.3299715,-1.796511 0.2398848,-0.496903 0.5568439,-0.899203 0.9165873,-1.209895 0.3862521,-0.314467 0.8155012,-0.566222 1.2832219,-0.73327 0.5036876,-0.179881 1.0200116,-0.294924 1.539867,-0.366635 0.536479,-0.0925 1.046766,-0.165046 1.539867,-0.183317 0.516092,-0.01911 0.980057,0 1.356549,0 l 0.586616,0 0,-0.586616 0,-0.916587 c -8e-6,-0.351313 -0.02886,-0.664201 -0.07333,-0.953251 -0.04906,-0.343337 -0.160866,-0.681737 -0.366635,-0.953251 -0.0099,-0.01405 -0.02639,-0.02298 -0.03666,-0.03666 -0.21347,-0.284096 -0.538515,-0.464666 -0.879924,-0.586616 -0.370366,-0.13226 -0.778987,-0.183306 -1.283222,-0.183318 -0.452136,1.2e-5 -0.886788,0.0384 -1.319886,0.146654 -0.4102164,0.08206 -0.7787535,0.167031 -1.136569,0.293308 -0.3234271,0.114167 -0.6035392,0.230869 -0.8432603,0.329972 -0.00909,0.0038 -0.027691,-0.0038 -0.036664,0 -0.028585,0.0084 -0.011638,0.03021 -0.036663,0.03666 l -0.5499521,-1.613194 0,-0.03666 0,-0.03666 c 0.022104,-0.01551 0.035373,-0.0156 0.073327,-0.03666 0.00798,-0.0038 0.02858,0.0038 0.036663,0 0.2813292,-0.129925 0.6709824,-0.277937 1.136568,-0.403298 0.4727149,-0.127259 1.0002425,-0.218936 1.5765304,-0.293308 0.575667,-0.07428 1.116716,-0.109967 1.649857,-0.109991 z m 0.549952,7.112718 c -0.50372,8e-6 -1.028022,0.107374 -1.539866,0.256644 -0.546108,0.159289 -1.0379434,0.423115 -1.4665404,0.806597 -0.4973116,0.442056 -0.6966124,1.125851 -0.6966065,1.869838 -6.1e-6,0.681453 0.2179882,1.30546 0.6599425,1.796511 l 0.03666,0.03666 c 0.472465,0.472475 1.1083184,0.696608 1.7965114,0.696607 0.638528,10e-7 1.20878,-0.161271 1.686521,-0.513289 0.323788,-0.181138 0.619177,-0.501519 0.879921,-0.73327 l 0.183317,-0.183317 0,-0.256645 0,-3.006406 c 0.0096,-0.0606 0.0096,-0.122714 0,-0.183318 -0.0023,-0.06255 -0.01477,-0.124689 -0.03666,-0.183317 -0.01044,-0.02526 -0.02275,-0.04978 -0.03666,-0.07333 -0.01044,-0.02526 -0.02275,-0.04978 -0.03666,-0.07333 -0.01162,-0.01275 -0.02391,-0.02499 -0.03666,-0.03666 -0.05043,-0.06053 -0.113193,-0.110742 -0.183317,-0.146654 -0.02355,-0.01392 -0.04807,-0.02618 -0.07333,-0.03666 -0.02442,-0.0015 -0.04891,-0.0015 -0.07333,0 -0.02355,-0.01391 -0.04807,-0.02618 -0.07333,-0.03666 -0.01221,-3.83e-4 -0.02445,-3.83e-4 -0.03666,0 l -0.07333,0 z m 0,1.173231 0.366635,0 0,2.346464 c -0.150564,0.137915 -0.311821,0.296343 -0.586616,0.513289 -0.221478,0.141714 -0.761002,0.201649 -0.989914,0.256648 -0.412694,10e-7 -0.701469,-0.09246 -0.953251,-0.329971 -0.01091,-0.0121 -0.02627,-0.02446 -0.03666,-0.03666 -0.231295,-0.271648 -0.3299764,-0.570063 -0.3299724,-0.989914 -4e-6,-0.530666 0.09534,-0.813943 0.2933084,-0.989914 0.315289,-0.260919 0.730736,-0.431174 1.026574,-0.586616 0.415166,-0.121077 0.825204,-0.183312 1.209896,-0.183326 z"
       id="path2996-9"
       inkscape:connector-curvature="0"
       sodipodi:nodetypes="cccccsccccccccccccccccccccccccssccscccccccccccccccccsccccsccccccccccccccccscssccccsccccccccccccccccccccccccccsscccccccccccccccccccccccccccccc" />
    <rect
       style="fill:none;stroke:#000000;stroke-width:1;stroke-linecap:square;stroke-linejoin:miter;stroke-miterlimit:4;stroke-opacity:0.39215686;stroke-dasharray:none"
       id="rect4537-3"
       width="18.994583"
       height="2.9834285"
       x="2.5065579"
       y="59.504978" />
  </g>
</svg>
